{
  "accessors": [
    {
      "bufferView": 1,
      "componentType": 5126,
      "count": 65532,
      "max": [
        0.49741387367248535,
        25.123071670532227,
        -242.665771484375
      ],
      "min": [
        -35.925979614257812,
        -16.528303146362305,
        -301.48629760742188
      ],
      "type": "VEC3"
    },
    {
      "bufferView": 1,
      "byteOffset": 786384,
      "componentType": 5126,
      "count": 65532,
      "max": [
        0.9999273419380188,
        0.99994993209838867,
        0.99999231100082397
      ],
      "min": [
        -0.99999076128005981,
        -0.99998509883880615,
        -0.97002041339874268
      ],
      "type": "VEC3"
    },
    {
      "bufferView": 2,
      "componentType": 5126,
      "count": 65532,
      "max": [
        0.99996960163116455,
        0.99953997135162354,
        0.99799621105194092,
        1
      ],
      "min": [
        -0.99999302625656128,
        -0.99999499320983887,
        -0.99997347593307495,
        -1
      ],
      "type": "VEC4"
    },
    {
      "bufferView": 0,
      "componentType": 5125,
      "count": 355464,
      "max": [
        65531
      ],
      "min": [
        0
      ],
      "type": "SCALAR"
    },
    {
      "bufferView": 1,
      "byteOffset": 1572768,
      "componentType": 5126,
      "count": 38703,
      "max": [
        0.49741387367248535,
        25.123071670532227,
        -242.64114379882812
      ],
      "min": [
        -35.931423187255859,
        -16.605260848999023,
        -307.7208251953125
      ],
      "type": "VEC3"
    },
    {
      "bufferView": 1,
      "byteOffset": 2037204,
      "componentType": 5126,
      "count": 38703,
      "max": [
        0.99997556209564209,
        0.99998176097869873,
        0.99998968839645386
      ],
      "min": [
        -0.99999308586120605,
        -0.99994689226150513,
        -1
      ],
      "type": "VEC3"
    },
    {
      "bufferView": 2,
      "byteOffset": 1048512,
      "componentType": 5126,
      "count": 38703,
      "max": [
        0.99995511770248413,
        0.99953997135162354,
        0.85412794351577759,
        1
      ],
      "min": [
        -0.99996030330657959,
        -0.99999499320983887,
        -0.99999183416366577,
        -1
      ],
      "type": "VEC4"
    },
    {
      "bufferView": 0,
      "byteOffset": 1421856,
      "componentType": 5125,
      "count": 171210,
      "max": [
        38702
      ],
      "min": [
        0
      ],
      "type": "SCALAR"
    }
  ],
  "asset": {
    "extras": {
      "author": "mwopus (https://sketchfab.com/mwopus)",
      "license": "CC-BY-4.0 (http://creativecommons.org/licenses/by/4.0/)",
      "source": "https://sketchfab.com/models/f869508064794955b0ec2f7cde21928f",
      "title": "Franklin sculpture"
    },
    "generator": "Sketchfab-3.18.7",
    "version": "2.0"
  },
  "bufferViews": [
    {
      "buffer": 0,
      "byteLength": 2106696,
      "byteOffset": 0,
      "name": "floatBufferViews",
      "target": 34963
    },
    {
      "buffer": 0,
      "byteLength": 2501640,
      "byteOffset": 2106696,
      "byteStride": 12,
      "name": "floatBufferViews",
      "target": 34962
    },
    {
      "buffer": 0,
      "byteLength": 1667760,
      "byteOffset": 4608336,
      "byteStride": 16,
      "name": "floatBufferViews",
      "target": 34962
    }
  ],
  "buffers": [
    {
      "byteLength": 6276096,
      "uri": "scene.bin"
    }
  ],
  "materials": [
    {
      "doubleSided": true,
      "name": "Scene_-_Root",
      "pbrMetallicRoughness": {
        "baseColorFactor": [
          0.39852189875036931,
          0.32972861344883414,
          0.26085940855383449,
          1
        ],
        "metallicFactor": 0.23866234759999999,
        "roughnessFactor": 0.31183307929999998
      }
    }
  ],
  "meshes": [
    {
      "primitives": [
        {
          "attributes": {
            "NORMAL": 1,
            "POSITION": 0,
            "TANGENT": 2
          },
          "indices": 3,
          "material": 0,
          "mode": 4
        }
      ]
    },
    {
      "primitives": [
        {
          "attributes": {
            "NORMAL": 5,
            "POSITION": 4,
            "TANGENT": 6
          },
          "indices": 7,
          "material": 0,
          "mode": 4
        }
      ]
    }
  ],
  "nodes": [
    {
      "children": [
        1
      ],
      "name": "RootNode (gltf orientation matrix)",
      "rotation": [
        -0.70710678118654746,
        -0,
        -0,
        0.70710678118654757
      ]
    },
    {
      "children": [
        2
      ],
      "name": "RootNode (model correction matrix)"
    },
    {
      "children": [
        3,
        4
      ],
      "name": "franklin_sculpture.OBJ.cleaner.materialmerger.gles"
    },
    {
      "mesh": 0,
      "name": ""
    },
    {
      "mesh": 1,
      "name": ""
    }
  ],
  "scene": 0,
  "scenes": [
    {
      "name": "OSG_Scene",
      "nodes": [
        0
      ]
    }
  ]
}

